<svg width="112" height="23" viewBox="0 0 112 23" fill="none" xmlns="http://www.w3.org/2000/svg">
<path d="M7.74399 19.288H13.376V23H5.24799C3.83999 21.6773 2.77332 20.0027 2.04799 17.976C1.32266 15.9493 0.959991 13.8693 0.959991 11.736C0.959991 9.58134 1.36532 7.51201 2.17599 5.52801C2.98666 3.54401 4.19199 1.90134 5.79199 0.600006H13.376V4.44001H7.74399C7.16799 5.10134 6.66666 6.16801 6.23999 7.64001C5.83466 9.11201 5.63199 10.52 5.63199 11.864C5.63199 13.208 5.83466 14.616 6.23999 16.088C6.66666 17.56 7.16799 18.6267 7.74399 19.288Z" fill="black"/>
<path d="M19.7875 0.600006V23H15.5635V0.600006H19.7875Z" fill="black"/>
<path d="M29.9242 10.008H27.5242C27.2042 10.392 26.9376 10.9253 26.7242 11.608C26.5322 12.2907 26.4362 12.952 26.4362 13.592H31.0122C31.0549 12.952 30.9696 12.2907 30.7562 11.608C30.5429 10.904 30.2656 10.3707 29.9242 10.008ZM34.2762 19.64V23H26.1482C24.6549 21.9973 23.5989 20.76 22.9802 19.288C22.3829 17.7947 22.0842 16.2907 22.0842 14.776C22.0842 11.2773 23.4069 8.56801 26.0522 6.64801H31.2362C32.6656 7.69334 33.6362 8.80267 34.1482 9.97601C34.6602 11.1493 34.9162 12.3333 34.9162 13.528C34.9162 14.7227 34.8202 15.7467 34.6282 16.6H26.6602C26.7242 17.0907 26.9056 17.656 27.2042 18.296C27.5242 18.9147 27.8656 19.3627 28.2282 19.64H34.2762Z" fill="black"/>
<path d="M44.7755 15.608H41.3515C40.9035 16.1627 40.6795 16.856 40.6795 17.688C40.6795 18.52 40.9142 19.1707 41.3835 19.64H44.7755V15.608ZM37.8955 6.64801H45.8315C47.1115 7.41601 47.9542 8.30134 48.3595 9.30401C48.7648 10.2853 48.9675 11.6293 48.9675 13.336V18.136C48.9675 19.9067 49.0102 21.528 49.0955 23H45.4475L44.8715 21.848C44.0395 22.616 42.8662 23 41.3515 23H39.3355C37.5222 21.8053 36.6155 20.088 36.6155 17.848C36.6155 15.5867 37.5435 13.8053 39.3995 12.504H42.4075C43.2395 12.504 44.0182 12.76 44.7435 13.272V11.672C44.7435 10.84 44.3808 10.2853 43.6555 10.008H37.8955V6.64801Z" fill="black"/>
<path d="M58.8237 6.64801H62.2157C63.1544 7.84267 63.7944 9.03734 64.1357 10.232C64.4771 11.4267 64.6477 12.92 64.6477 14.712V23H60.3917V14.392C60.3917 12.3653 60.1144 10.904 59.5597 10.008H55.9757V23H51.7197V6.64801H55.0477L55.6237 7.80001C56.0931 7.37334 56.5304 7.07467 56.9357 6.90401C57.3624 6.73334 57.9917 6.64801 58.8237 6.64801Z" fill="black"/>
<path d="M76.4342 23H70.5142C69.4902 22.168 68.6796 21.0693 68.0822 19.704C67.4849 18.3387 67.1862 16.824 67.1862 15.16V6.64801H71.4422V15.032C71.4422 16.9093 71.7942 18.4453 72.4982 19.64H74.4502C75.1542 18.3813 75.5062 16.856 75.5062 15.064V6.64801H79.7622V15C79.7622 16.6853 79.4636 18.232 78.8662 19.64C78.2689 21.048 77.4582 22.168 76.4342 23Z" fill="black"/>
<path d="M82.4072 23V6.64801H86.6312V23H82.4072ZM82.4072 0.600006H86.6312V4.92001H82.4072V0.600006Z" fill="black"/>
<path d="M89.408 23V6.64801H92.448L93.248 8.37601C94.1013 7.22401 95.1787 6.64801 96.48 6.64801H97.728V10.936H93.664V23H89.408Z" fill="black"/>
<path d="M108.698 23H101.722C99.5884 21.016 98.5217 18.3067 98.5217 14.872C98.5217 13.144 98.7564 11.64 99.2257 10.36C99.7164 9.08001 100.484 7.84267 101.53 6.64801H109.018C110.127 7.92801 110.884 9.17601 111.29 10.392C111.695 11.5867 111.898 13.08 111.898 14.872C111.898 18.3067 110.831 21.016 108.698 23ZM103.994 19.64H106.426C107.194 18.1467 107.578 16.4507 107.578 14.552C107.578 12.6533 107.183 11.1387 106.394 10.008H103.994C103.226 11.096 102.842 12.6427 102.842 14.648C102.842 16.632 103.226 18.296 103.994 19.64Z" fill="black"/>
</svg>
